<mxfile host="app.diagrams.net" modified="2024-05-16T10:46:08.286Z" agent="Mozilla/5.0 (Windows NT 10.0; Win64; x64) AppleWebKit/537.36 (KHTML, like Gecko) Chrome/124.0.0.0 Safari/537.36" etag="QKQOFlO_MfMBfFI6xWsh" version="24.3.1" type="google">
  <diagram name="Page-1" id="O-109bV0ZU06yiMruQCl">
    <mxGraphModel grid="1" page="1" gridSize="10" guides="1" tooltips="1" connect="1" arrows="1" fold="1" pageScale="1" pageWidth="827" pageHeight="1169" math="0" shadow="0">
      <root>
        <mxCell id="0" />
        <mxCell id="1" parent="0" />
        <mxCell id="tdISbU3QcUcJ55vKMBew-1" value="" style="rounded=0;whiteSpace=wrap;html=1;" vertex="1" parent="1">
          <mxGeometry x="260" y="230" width="290" height="330" as="geometry" />
        </mxCell>
        <mxCell id="tdISbU3QcUcJ55vKMBew-2" value="Executive Chef" style="shape=umlActor;verticalLabelPosition=bottom;verticalAlign=top;html=1;outlineConnect=0;" vertex="1" parent="1">
          <mxGeometry x="170" y="340" width="30" height="60" as="geometry" />
        </mxCell>
        <mxCell id="tdISbU3QcUcJ55vKMBew-5" value="gives orders to chefs to prepare food" style="ellipse;whiteSpace=wrap;html=1;" vertex="1" parent="1">
          <mxGeometry x="290" y="310" width="80" height="50" as="geometry" />
        </mxCell>
        <mxCell id="tdISbU3QcUcJ55vKMBew-14" value="Sous Chef" style="shape=umlActor;verticalLabelPosition=bottom;verticalAlign=top;html=1;outlineConnect=0;" vertex="1" parent="1">
          <mxGeometry x="620" y="365" width="30" height="60" as="geometry" />
        </mxCell>
        <mxCell id="tdISbU3QcUcJ55vKMBew-15" value="Order from customer printed out via MOBS" style="ellipse;whiteSpace=wrap;html=1;" vertex="1" parent="1">
          <mxGeometry x="430" y="260" width="100" height="50" as="geometry" />
        </mxCell>
        <mxCell id="tdISbU3QcUcJ55vKMBew-17" value="prepares main courses" style="ellipse;whiteSpace=wrap;html=1;" vertex="1" parent="1">
          <mxGeometry x="290" y="390" width="80" height="50" as="geometry" />
        </mxCell>
        <mxCell id="tdISbU3QcUcJ55vKMBew-18" value="Server" style="shape=umlActor;verticalLabelPosition=bottom;verticalAlign=top;html=1;outlineConnect=0;" vertex="1" parent="1">
          <mxGeometry x="620" y="260" width="30" height="60" as="geometry" />
        </mxCell>
        <mxCell id="tdISbU3QcUcJ55vKMBew-19" value="Line Chefs" style="shape=umlActor;verticalLabelPosition=bottom;verticalAlign=top;html=1;outlineConnect=0;" vertex="1" parent="1">
          <mxGeometry x="620" y="480" width="30" height="60" as="geometry" />
        </mxCell>
        <mxCell id="tdISbU3QcUcJ55vKMBew-20" value="prepares main courses when executive chef is not on duty" style="ellipse;whiteSpace=wrap;html=1;" vertex="1" parent="1">
          <mxGeometry x="420" y="340" width="120" height="60" as="geometry" />
        </mxCell>
        <mxCell id="tdISbU3QcUcJ55vKMBew-21" value="prepares pastry" style="ellipse;whiteSpace=wrap;html=1;" vertex="1" parent="1">
          <mxGeometry x="437" y="410" width="86" height="40" as="geometry" />
        </mxCell>
        <mxCell id="tdISbU3QcUcJ55vKMBew-22" value="manages pantry" style="ellipse;whiteSpace=wrap;html=1;" vertex="1" parent="1">
          <mxGeometry x="437" y="480" width="86" height="40" as="geometry" />
        </mxCell>
        <mxCell id="tdISbU3QcUcJ55vKMBew-23" value="" style="endArrow=none;html=1;rounded=0;entryX=0;entryY=0.5;entryDx=0;entryDy=0;" edge="1" parent="1" target="tdISbU3QcUcJ55vKMBew-5">
          <mxGeometry width="50" height="50" relative="1" as="geometry">
            <mxPoint x="200" y="370" as="sourcePoint" />
            <mxPoint x="250" y="320" as="targetPoint" />
          </mxGeometry>
        </mxCell>
        <mxCell id="tdISbU3QcUcJ55vKMBew-24" value="" style="endArrow=none;html=1;rounded=0;entryX=0;entryY=0.5;entryDx=0;entryDy=0;" edge="1" parent="1">
          <mxGeometry width="50" height="50" relative="1" as="geometry">
            <mxPoint x="200" y="370" as="sourcePoint" />
            <mxPoint x="290" y="415" as="targetPoint" />
          </mxGeometry>
        </mxCell>
        <mxCell id="tdISbU3QcUcJ55vKMBew-25" value="" style="endArrow=none;html=1;rounded=0;" edge="1" parent="1" target="tdISbU3QcUcJ55vKMBew-18">
          <mxGeometry width="50" height="50" relative="1" as="geometry">
            <mxPoint x="530" y="290" as="sourcePoint" />
            <mxPoint x="620" y="335" as="targetPoint" />
          </mxGeometry>
        </mxCell>
        <mxCell id="tdISbU3QcUcJ55vKMBew-26" value="" style="endArrow=none;html=1;rounded=0;entryX=0;entryY=0.3333333333333333;entryDx=0;entryDy=0;entryPerimeter=0;" edge="1" parent="1" target="tdISbU3QcUcJ55vKMBew-14">
          <mxGeometry width="50" height="50" relative="1" as="geometry">
            <mxPoint x="540" y="372.5" as="sourcePoint" />
            <mxPoint x="630" y="417.5" as="targetPoint" />
          </mxGeometry>
        </mxCell>
        <mxCell id="tdISbU3QcUcJ55vKMBew-27" value="" style="endArrow=none;html=1;rounded=0;entryX=0;entryY=0.3333333333333333;entryDx=0;entryDy=0;entryPerimeter=0;" edge="1" parent="1" target="tdISbU3QcUcJ55vKMBew-14">
          <mxGeometry width="50" height="50" relative="1" as="geometry">
            <mxPoint x="523" y="425" as="sourcePoint" />
            <mxPoint x="613" y="470" as="targetPoint" />
          </mxGeometry>
        </mxCell>
        <mxCell id="tdISbU3QcUcJ55vKMBew-28" value="" style="endArrow=none;html=1;rounded=0;" edge="1" parent="1">
          <mxGeometry width="50" height="50" relative="1" as="geometry">
            <mxPoint x="523" y="500" as="sourcePoint" />
            <mxPoint x="620" y="510" as="targetPoint" />
          </mxGeometry>
        </mxCell>
        <mxCell id="7gOzqqNOhDsizmsuhAkQ-1" value="Kitchen" style="text;html=1;align=center;verticalAlign=middle;whiteSpace=wrap;rounded=0;" vertex="1" parent="1">
          <mxGeometry x="375" y="230" width="60" height="30" as="geometry" />
        </mxCell>
      </root>
    </mxGraphModel>
  </diagram>
</mxfile>
